#!OML:ASF I:\salsa\salsa 7_09\Patient 1\Session 1\dancermale.ASF
:FULLY-SPECIFIED
:DEGREES
1345
root 4.90311 17.2372 4.67914 363.349 -62.7204 4.00111
lowerback -6.5191 0.981728 -3.24367
upperback -0.0315319 1.64237 -3.62486
thorax 3.64234 0.769721 -1.77422
lowerneck -6.82328 -5.60685 -5.43491
upperneck 19.9421 -7.55397 1.86055
head 7.52993 -3.93951 0.842525
rclavicle -2.74323e-014 6.59965e-014
rhumerus -1.0975 59.8154 -36.0105
rradius 123.271
rwrist 30.2403
rhand -20.3564 21.1583
rfingers 7.12502
rthumb 5.99574 -8.7369
lclavicle -2.74323e-014 6.59965e-014
lhumerus -49.8168 -40.3444 114.418
lradius 104.503
lwrist 29.006
lhand -7.31357 54.2091
lfingers 7.12502
lthumb 18.5692 -276.657
rfemur -21.7969 17.6072 0.128747
rtibia 24.0831
rfoot -19.1656 -23.4838
rtoes 28.2229
lfemur -9.77301 -13.7709 -16.609
ltibia 19.8316
lfoot -24.4341 1.24277
ltoes -21.5246
1346
root 4.7238 17.2293 4.53785 364.019 -61.0241 3.26511
lowerback -6.35811 0.764616 -3.19722
upperback -0.185925 1.33257 -3.62417
thorax 3.38999 0.619431 -1.83093
lowerneck -6.69549 -5.76896 -5.22505
upperneck 20.1302 -7.81133 1.79616
head 7.5674 -4.05628 0.76525
rclavicle -3.24019e-014 -1.51076e-014
rhumerus -1.96352 59.1619 -35.0707
rradius 124.399
rwrist 28.8589
rhand -20.4494 20.813
rfingers 7.12502
rthumb 5.90596 -9.08466
lclavicle -3.24019e-014 -1.51076e-014
lhumerus -50.0594 -40.1085 114.059
lradius 104.317
lwrist 29.7643
lhand -8.78938 54.392
lfingers 7.12502
lthumb 17.1492 -276.345
rfemur -20.5771 17.9397 0.824379
rtibia 22.3938
rfoot -18.8961 -23.1326
rtoes 25.5114
lfemur -9.48964 -15.5113 -15.5849
ltibia 19.4539
lfoot -24.3817 1.59989
ltoes -22.5267
1347
root 4.53772 17.2169 4.39627 364.814 -59.639 2.22032
lowerback -6.31466 0.653915 -2.87933
upperback -0.200442 1.16111 -3.62849
thorax 3.35525 0.540557 -2.02966
lowerneck -6.41525 -5.84679 -5.7493
upperneck 19.8461 -7.86332 1.89577
head 7.45407 -4.10979 0.890126
rclavicle 6.47044e-014 -2.22639e-014
rhumerus -2.55578 58.5149 -34.2063
rradius 125.344
rwrist 27.1334
rhand -20.2977 20.5016
rfingers 7.12502
rthumb 6.05243 -9.39194
lclavicle 6.47044e-014 -2.22639e-014
lhumerus -50.0157 -39.8734 113.387
lradius 104.234
lwrist 30.0736
lhand -9.49238 54.4627
lfingers 7.12502
lthumb 16.4724 -276.217
rfemur -19.3937 16.3817 2.5026
rtibia 21.9143
rfoot -18.5886 -21.5226
rtoes 23.6433
lfemur -9.09646 -16.9918 -14.3473
ltibia 19.2454
lfoot -24.3755 2.15046
ltoes -23.4494
1348
root 4.33447 17.2053 4.24171 365.501 -58.4907 1.19995
lowerback -6.26839 0.584884 -2.73479
upperback -0.212116 1.0563 -3.58888
thorax 3.31736 0.491533 -2.07943
lowerneck -6.32176 -5.94848 -5.90132
upperneck 19.8619 -7.98218 1.87676
head 7.4541 -4.17955 0.900171
rclavicle 1.43125e-014 6.36111e-015
rhumerus -3.23438 58.1458 -33.6765
rradius 126.121
rwrist 25.6675
rhand -20.1703 20.3087
rfingers 7.12502
rthumb 6.17539 -9.58134
lclavicle 1.43125e-014 6.36111e-015
lhumerus -49.8723 -39.4604 112.626
lradius 104.194
lwrist 30.2389
lhand -9.55393 54.7908
lfingers 7.12502
lthumb 16.4132 -275.884
rfemur -18.2367 15.0516 4.29892
rtibia 21.7951
rfoot -18.6316 -20.2615
rtoes 24.0661
lfemur -8.61053 -18.1959 -13.0361
ltibia 19.1589
lfoot -24.4201 2.70557
ltoes -23.9359
1349
root 4.15105 17.1785 4.02699 366.733 -56.7072 0.372596
lowerback -6.19744 0.241573 -3.0435
upperback -0.544289 0.596715 -3.51312
thorax 2.9217 0.260621 -1.86787
lowerneck -6.29816 -6.06323 -6.04032
upperneck 19.9249 -8.16617 2.09236
head 7.49383 -4.2593 0.974723
rclavicle 4.54223e-014 1.11319e-014
rhumerus -4.23957 58.0388 -33.8029
rradius 126.713
rwrist 24.8322
rhand -20.1099 20.0421
rfingers 7.12502
rthumb 6.2337 -9.84617
lclavicle 4.54223e-014 1.11319e-014
lhumerus -49.7087 -39.0425 111.877
lradius 103.981
lwrist 30.1441
lhand -9.67027 55.1539
lfingers 7.12502
lthumb 16.3012 -275.511
rfemur -18.082 13.2872 6.08162
rtibia 22.3188
rfoot -18.2045 -21.2859
rtoes 22.3219
lfemur -9.65852 -18.6522 -11.1427
ltibia 19.7519
lfoot -24.8371 2.13916
ltoes -23.8018
1350
root 3.94611 17.1623 3.86799 367.511 -55.682 -0.650641
lowerback -6.22853 0.223736 -2.66145
upperback -0.571601 0.550091 -3.59948
thorax 2.91492 0.242946 -2.17578
lowerneck -6.30718 -6.19493 -6.08189
upperneck 19.9503 -8.40768 2.42894
head 7.53061 -4.34834 1.06676
rclavicle 7.85199e-014 -4.6118e-014
rhumerus -5.54228 58.0407 -34.6501
rradius 127.029
rwrist 24.3421
rhand -19.9252 19.7851
rfingers 7.12502
rthumb 6.41205 -10.0979
lclavicle 7.85199e-014 -4.6118e-014
lhumerus -49.4826 -38.6799 111.126
lradius 103.662
lwrist 30.2608
lhand -9.94988 55.3551
lfingers 7.12502
lthumb 16.0319 -275.288
rfemur -17.5445 12.0997 7.72741
rtibia 22.3068
rfoot -17.2171 -21.4545
rtoes 21.161
lfemur -9.5643 -19.5547 -9.76573
ltibia 20.156
lfoot -24.7789 2.98686
ltoes -23.0242
1351
root 3.75225 17.1511 3.71568 368.531 -54.7414 -1.89242
lowerback -6.31897 0.220561 -2.03018
upperback -0.607858 0.508158 -3.66188
thorax 2.9335 0.230797 -2.59908
lowerneck -6.32023 -6.33025 -5.78817
upperneck 19.9572 -8.6643 2.58472
head 7.53931 -4.43614 1.0455
rclavicle -7.13637e-014 4.45278e-014
rhumerus -6.79576 58.2137 -35.9095
rradius 126.994
rwrist 23.8623
rhand -19.7134 19.4439
rfingers 7.12502
rthumb 6.61647 -10.4327
lclavicle -7.13637e-014 4.45278e-014
lhumerus -49.1442 -38.1729 110.369
lradius 103.234
lwrist 30.882
lhand -10.2274 55.5258
lfingers 7.12502
lthumb 15.7647 -275.096
rfemur -17.353 10.2944 9.46329
rtibia 22.6824
rfoot -16.3009 -20.9625
rtoes 19.1898
lfemur -9.84784 -19.9493 -8.21379
ltibia 21.0471
lfoot -24.655 3.95688
ltoes -22.1652
1352
root 3.56174 17.138 3.57377 369.647 -53.9268 -3.50655
lowerback -6.34036 0.266941 -1.14158
upperback -0.519085 0.515367 -3.6005
thorax 3.04486 0.247955 -3.03586
lowerneck -6.34365 -6.46319 -5.56487
upperneck 19.7841 -8.88619 2.6927
head 7.49042 -4.51462 1.02571
rclavicle -5.73494e-014 4.6118e-014
rhumerus -7.84559 58.4839 -37.2342
rradius 126.653
rwrist 23.431
rhand -19.2902 19.0551
rfingers 7.12502
rthumb 7.02498 -10.8083
lclavicle -5.73494e-014 4.6118e-014
lhumerus -48.5337 -37.5239 109.702
lradius 102.522
lwrist 31.6483
lhand -10.2723 55.7232
lfingers 7.12502
lthumb 15.7214 -274.895
rfemur -17.0481 8.38816 11.4734
rtibia 23.1845
rfoot -15.5894 -20.5106
rtoes 16.1963
lfemur -10.2269 -19.3957 -6.54275
ltibia 22.5639
lfoot -24.543 4.79822
ltoes -21.1592
1353
root 3.37249 17.1199 3.43737 370.651 -53.0197 -5.11741
lowerback -6.34151 0.333672 -0.266983
upperback -0.350561 0.55035 -3.47582
thorax 3.2285 0.281382 -3.39782
lowerneck -6.4342 -6.64279 -5.50237
upperneck 19.5768 -9.14888 2.83325
head 7.45384 -4.61953 1.03618
rclavicle -5.28767e-014 2.22639e-014
rhumerus -9.07573 58.7149 -38.7708
rradius 126.078
rwrist 23.3983
rhand -18.6339 18.8356
rfingers 7.12502
rthumb 7.65853 -11.0057
lclavicle -5.28767e-014 2.22639e-014
lhumerus -47.7522 -36.9657 109.306
lradius 101.505
lwrist 32.5445
lhand -10.1765 55.8032
lfingers 7.12502
lthumb 15.8137 -274.823
rfemur -16.6247 6.53328 13.4903
rtibia 23.6929
rfoot -15.4732 -20.0301
rtoes 12.2156
lfemur -10.9309 -18.1089 -4.98094
ltibia 24.9032
lfoot -24.3293 5.51175
ltoes -18.8816
1354
root 3.18843 17.0998 3.29815 371.525 -51.8479 -6.49335
lowerback -6.32474 0.33457 0.387246
upperback -0.249046 0.506584 -3.30029
thorax 3.32569 0.272153 -3.58953
lowerneck -6.42524 -6.85614 -5.41775
upperneck 19.3647 -9.4588 2.93161
head 7.39737 -4.75151 1.02884
rclavicle -4.47266e-015 4.13472e-014
rhumerus -10.7961 58.9799 -40.7989
rradius 125.257
rwrist 23.9791
rhand -18.2972 18.6827
rfingers 7.12502
rthumb 7.98353 -11.1465
lclavicle -4.47266e-015 4.13472e-014
lhumerus -47.1387 -36.472 109.336
lradius 100.29
lwrist 33.6299
lhand -10.2862 55.9056
lfingers 7.12502
lthumb 15.708 -274.712
rfemur -16.3117 4.6147 15.3776
rtibia 24.2951
rfoot -16.1047 -19.2802
rtoes 9.67202
lfemur -12.2345 -16.3182 -3.54429
ltibia 28.0762
lfoot -23.8159 5.99362
ltoes -14.7365
